



<svg xmlns="http://www.w3.org/2000/svg" viewBox="0 0 48 48"><defs><style>.cls-1{fill:#201602}</style></defs><g id="Layer_2" data-name="Layer 2"><g id="layer_1-2" data-name="layer 1"><path class="cls-1" d="M24 26a13 13 0 1 1 13-13 13 13 0 0 1-13 13zm0-24a11 11 0 1 0 11 11A11 11 0 0 0 24 2z"/><path class="cls-1" d="M24 48a13 13 0 0 1-8.6-22.75l1.32 1.5a11 11 0 1 0 14.55 0l1.33-1.5A13 13 0 0 1 24 48zM10 36H5a5 5 0 0 1-5-5V17a5 5 0 0 1 5-5h4v2H5a3 3 0 0 0-3 3v14a3 3 0 0 0 3 3h5z"/><path class="cls-1" d="m5.71 17.71-1.42-1.42L7.59 13l-3.3-3.29 1.42-1.42 4 4a1 1 0 0 1 0 1.42zM43 36h-4v-2h4a3 3 0 0 0 3-3V17a3 3 0 0 0-3-3h-5v-2h5a5 5 0 0 1 5 5v14a5 5 0 0 1-5 5z"/><path class="cls-1" d="m42.29 39.71-4-4a1 1 0 0 1 0-1.42l4-4 1.42 1.42-3.3 3.29 3.3 3.29zM24 20a4 4 0 0 1-4-4h2a2 2 0 1 0 2-2 4 4 0 1 1 4-4h-2a2 2 0 1 0-2 2 4 4 0 0 1 0 8z"/><path class="cls-1" d="M23 19h2v3h-2zM23 4h2v3h-2zM30 12h2v2h-2zM16 12h2v2h-2zM27 42h-3a5 5 0 0 1-5-5v-4a5 5 0 0 1 5-5h3v2h-3a3 3 0 0 0-3 3v4a3 3 0 0 0 3 3h3z"/><path class="cls-1" d="M17 32h8v2h-8zM17 36h8v2h-8zM29 32h2v2h-2zM29 36h2v2h-2z"/></g></g></svg>